<svg width="412" height="454" viewBox="0 0 412 454" fill="none" xmlns="http://www.w3.org/2000/svg">
<g style="mix-blend-mode:overlay">
<path d="M72.8734 180.444C61.2987 176.586 37.5063 178.836 27.057 180.444C17.4114 209.383 15 262.437 15 267.26C15 271.118 92.1646 280.121 130.747 284.141C101.006 280.121 40.5608 272.565 36.7025 274.494C32.8443 276.424 28.6646 326.745 27.057 351.664L111.456 361.31L48.7595 356.487C48.7595 354.879 48.7595 357.452 48.7595 380.602C48.7595 403.753 55.1899 422.403 58.4051 428.833C156.468 434.46 354.524 443.785 362.241 436.068C383.461 383.979 393.589 266.456 396 214.206C364.652 206.971 299.544 190.09 289.899 180.444C280.253 170.798 260.158 110.509 251.316 81.5706C256.139 63.8859 263.373 27.5519 253.728 23.6935C212.734 6.81263 195.854 18.8704 186.209 23.6935C176.563 28.5166 159.684 96.0399 159.684 108.098C159.684 117.744 172.544 149.094 178.975 163.563C147.627 146.682 87.3418 139.448 80.1076 141.859C74.3203 143.789 72.8734 168.386 72.8734 180.444ZM72.8734 180.444L128.335 197.325" stroke="#FBF5F3" stroke-width="30"/>
</g>
</svg>
